<svg height="480pt" viewBox="0 0 480 480" width="480pt" xmlns="http://www.w3.org/2000/svg"><path d="m101.65625 477.65625-11.3125-11.3125 25.367188-25.375c13.089843-13.082031 20.289062-30.472656 20.289062-48.96875s-7.199219-35.886719-20.289062-48.96875l-2.75-2.757812c-16.097657-16.097657-24.960938-37.496094-24.960938-60.273438s8.863281-44.175781 24.976562-60.28125l25.367188-25.375 11.3125 11.3125-25.367188 25.375c-13.089843 13.082031-20.289062 30.472656-20.289062 48.96875s7.199219 35.886719 20.289062 48.96875l2.75 2.757812c16.097657 16.097657 24.960938 37.496094 24.960938 60.273438s-8.863281 44.175781-24.976562 60.28125zm0 0" fill="#236799"/><path d="m378.34375 477.65625-25.367188-25.375c-16.113281-16.105469-24.976562-37.503906-24.976562-60.28125s8.863281-44.175781 24.976562-60.28125l2.734376-2.742188c13.089843-13.089843 20.289062-30.480468 20.289062-48.976562s-7.199219-35.886719-20.289062-48.96875l-25.367188-25.375 11.3125-11.3125 25.367188 25.375c16.113281 16.105469 24.976562 37.503906 24.976562 60.28125s-8.863281 44.175781-24.976562 60.28125l-2.734376 2.742188c-13.089843 13.089843-20.289062 30.480468-20.289062 48.976562s7.199219 35.886719 20.289062 48.96875l25.367188 25.375zm0 0" fill="#236799"/><path d="m197.65625 461.65625-11.3125-11.3125 39.03125-39.03125c9.433594-9.441406 14.625-21.976562 14.625-35.3125s-5.191406-25.871094-14.625-35.3125l-22.0625-22.0625c-12.457031-12.457031-19.3125-29.015625-19.3125-46.625v-24h16v24c0 13.335938 5.191406 25.871094 14.625 35.3125l22.0625 22.0625c12.457031 12.457031 19.3125 29.015625 19.3125 46.625s-6.855469 34.167969-19.3125 46.625zm0 0" fill="#236799"/><path d="m202.34375 405.65625-7.03125-7.03125c-12.457031-12.457031-19.3125-29.015625-19.3125-46.625s6.855469-34.167969 19.3125-46.625l22.0625-22.0625c9.433594-9.441406 14.625-21.976562 14.625-35.3125h16c0 17.609375-6.855469 34.167969-19.3125 46.625l-22.0625 22.0625c-9.433594 9.441406-14.625 21.976562-14.625 35.3125s5.191406 25.871094 14.625 35.3125l7.03125 7.03125zm0 0" fill="#a9d8d6"/><path d="m314.34375 445.65625-25.855469-25.855469c-10.632812-10.632812-16.488281-24.769531-16.488281-39.800781s5.855469-29.167969 16.488281-39.800781l11.71875-11.71875c7.601563-7.609375 11.792969-17.71875 11.792969-28.480469s-4.191406-20.871094-11.800781-28.488281l-17.855469-17.855469 11.3125-11.3125 17.855469 17.855469c10.632812 10.632812 16.488281 24.769531 16.488281 39.800781s-5.855469 29.167969-16.488281 39.800781l-11.71875 11.71875c-7.601563 7.609375-11.792969 17.71875-11.792969 28.480469s4.191406 20.871094 11.800781 28.488281l25.855469 25.855469zm0 0" fill="#a9d8d6"/><path d="m320 208h-160c-35.34375 0-64-28.65625-64-64 0-79.527344 64.472656-144 144-144s144 64.472656 144 144c0 35.34375-28.65625 64-64 64zm0 0" fill="#4472b2"/><path d="m312 208v24c0 13.257812-10.742188 24-24 24s-24-10.742188-24-24c0 13.257812-10.742188 24-24 24s-24-10.742188-24-24c0 13.257812-10.742188 24-24 24s-24-10.742188-24-24v-24" fill="#2d4d83"/><g fill="#609be2"><path d="m432 216c0 8.835938-7.164062 16-16 16s-16-7.164062-16-16 7.164062-16 16-16 16 7.164062 16 16zm0 0"/><path d="m480 136c0 17.671875-14.328125 32-32 32s-32-14.328125-32-32 14.328125-32 32-32 32 14.328125 32 32zm0 0"/><path d="m80 216c0 8.835938-7.164062 16-16 16s-16-7.164062-16-16 7.164062-16 16-16 16 7.164062 16 16zm0 0"/><path d="m64 136c0 17.671875-14.328125 32-32 32s-32-14.328125-32-32 14.328125-32 32-32 32 14.328125 32 32zm0 0"/><path d="m480 448c0 17.671875-14.328125 32-32 32s-32-14.328125-32-32 14.328125-32 32-32 32 14.328125 32 32zm0 0"/><path d="m64 448c0 17.671875-14.328125 32-32 32s-32-14.328125-32-32 14.328125-32 32-32 32 14.328125 32 32zm0 0"/></g><path d="m360 168h-16v-16c0-61.761719-50.238281-112-112-112v-16c70.574219 0 128 57.425781 128 128zm0 0" fill="#2d4d83"/></svg>