<svg id="Capa_1" enable-background="new 0 0 497.612 497.612" height="512" viewBox="0 0 497.612 497.612" width="512" xmlns="http://www.w3.org/2000/svg"><g><path d="m126.024 369.748h52.053v31.403h-52.053z" fill="#b5adb6" transform="matrix(-1 0 0 -1 304.101 770.899)"/><path d="m320.535 369.748h51.053v31.403h-51.053z" fill="#b5adb6"/><path d="m226.433 252.319h43.746v125.141h-43.746z" fill="#efe2dd"/><g><path d="m67.734 165.631c-4.142 0-7.5-3.358-7.5-7.5v-90.342c0-4.142 3.358-7.5 7.5-7.5s7.5 3.358 7.5 7.5v90.342c0 4.142-3.358 7.5-7.5 7.5z" fill="#efe2dd"/></g><g><path d="m429.878 160.631c-4.143 0-7.5-3.358-7.5-7.5v-85.342c0-4.142 3.357-7.5 7.5-7.5s7.5 3.358 7.5 7.5v85.342c0 4.142-3.357 7.5-7.5 7.5z" fill="#efe2dd"/></g><path d="m407.682 186.081h44.392v-35.263c0-5.35-4.337-9.688-9.688-9.688h-25.016c-5.35 0-9.688 4.337-9.688 9.688z" fill="#e1d3ce"/><path d="m89.929 187.081h-44.392v-36.263c0-5.35 4.337-9.688 9.688-9.688h25.017c5.35 0 9.688 4.337 9.688 9.688v36.263z" fill="#e1d3ce"/><path d="m425.337 169.005c0-9.127 7.399-16.525 16.525-16.525h10.212v-1.661c0-5.35-4.337-9.688-9.688-9.688h-25.016c-5.35 0-9.688 4.337-9.688 9.688v35.263h17.654v-17.077z" fill="#cdbfba"/><path d="m63.192 169.005c0-9.127 7.399-16.525 16.525-16.525h10.213v-1.661c0-5.35-4.337-9.688-9.688-9.688h-25.017c-5.35 0-9.688 4.337-9.688 9.688v36.263h17.654v-18.077z" fill="#cdbfba"/><path d="m119.14 244.319-49.837 47.634c-1.242 1.187-1.944 2.83-1.944 4.548v88.066c0 6.412-5.198 11.61-11.61 11.61-6.002 0-11.014-4.574-11.562-10.551l-9.708-105.916c-.131-1.431.232-2.865 1.028-4.061l43.18-64.851 21.719-21.04 45.174 37.693z" fill="#e1d3ce"/><path d="m418.924 210.797 43.18 64.851c.797 1.196 1.16 2.63 1.028 4.061l-9.707 105.918c-.548 5.977-5.56 10.551-11.562 10.551-6.412 0-11.61-5.198-11.61-11.61v-88.066c0-1.718-.702-3.361-1.944-4.548l-49.837-47.634-32.411-23.618 54.003-33.028z" fill="#e1d3ce"/><path d="m366.436 183.779-32.989-32.989c-5.177-5.177-12.197-8.085-19.518-8.085h-130.247c-7.321 0-14.342 2.908-19.518 8.085l-32.989 32.989-18.073 21.582 77.761 43.218h169.725l35.511-37.781z" fill="#d5e3f4"/><path d="m158.681 229.027 18.073-21.582 23.936-23.936c10.973-10.973 25.855-17.137 41.372-17.137h106.967l-15.582-15.582c-5.176-5.177-12.197-8.085-19.518-8.085h-130.247c-7.321 0-14.342 2.908-19.518 8.085l-32.989 32.989-18.073 21.582 77.761 43.218h2.997z" fill="#b3ceec"/><g><g id="XMLID_341_"><g><path d="m353.437 243.838h-194.083l-18.808 24.471 21.07 23.62c3.25 3.65 7.9 5.73 12.78 5.73h148.82c4.88 0 9.53-2.08 12.78-5.73l21.07-23.62z" fill="#efe2dd"/><path d="m100.406 189.758-21.719 21.04-13.317 20.001h10.483c2.815 0 5.496 1.201 7.369 3.301l21.452 24.045 14.465-13.826 26.441-16.869z" fill="#cdbfba"/><path d="m418.924 210.797-18.86-23.124-54.003 33.028 32.411 23.618 14.465 13.826 21.555-24.159c1.809-2.027 4.396-3.186 7.113-3.186h10.637z" fill="#cdbfba"/><path d="m481.136 178.079c9.04 0 16.36 7.33 16.36 16.36 0 4.52-1.83 8.6-4.79 11.57-2.96 2.96-7.05 4.79-11.57 4.79h-72.76l-51.31 57.51h-216.52l-51.31-57.51h-72.76c-9.04 0-16.36-7.33-16.36-16.36 0-4.52 1.83-8.6 4.79-11.57 2.96-2.96 7.05-4.79 11.57-4.79h100.65c2.04 0 4.05.49 5.86 1.44l56.38 29.34c2.44 1.27 5.15 1.94 7.91 1.94h123.06c2.76 0 5.47-.67 7.91-1.94l56.38-29.34c1.81-.95 3.82-1.44 5.86-1.44z" fill="#f3eae6"/></g></g><path d="m340.922 280.211h-148.82c-4.88 0-9.53-2.08-12.78-5.73l-21.07-23.62-2.308-2.587-15.399 20.035 21.07 23.62c3.25 3.65 7.9 5.73 12.78 5.73h148.82c4.88 0 9.53-2.08 12.78-5.73l11.715-13.132c-2.121.917-4.426 1.414-6.788 1.414z" fill="#e1d3ce"/><g><path d="m158.252 250.861-51.31-57.51h-72.76c-8.672 0-15.743-6.751-16.305-15.272h-1.401c-4.52 0-8.61 1.83-11.57 4.79-2.96 2.97-4.79 7.05-4.79 11.57 0 9.03 7.32 16.36 16.36 16.36h72.76l51.31 57.51h33.271z" fill="#efe2dd"/></g><g><path d="m322.489 426.53c4.996 0 9.046-4.05 9.046-9.046v-64.069c0-4.996-4.05-9.046-9.046-9.046h-148.366c-4.996 0-9.046 4.05-9.046 9.046v64.069c0 4.996 4.05 9.046 9.046 9.046z" fill="#cbc4cc"/></g><circle cx="248.306" cy="385.45" fill="#b5adb6" r="51.873"/><path d="m224.362 385.45c0-23.808 16.093-43.865 37.955-49.965-4.445-1.24-9.172-1.908-14.012-1.908-28.649 0-51.873 23.224-51.873 51.873s23.224 51.873 51.873 51.873c4.84 0 9.589-.681 14.034-1.921-21.862-6.1-37.977-26.144-37.977-49.952z" fill="#a79ba7"/><circle cx="248.306" cy="385.45" fill="#a79ba7" r="21.873"/><path d="m368.393 418.307h13.441c4.311 0 7.806-3.495 7.806-7.806v-50.103c0-4.311-3.495-7.806-7.806-7.806h-13.441c-4.311 0-7.806 3.495-7.806 7.806v50.103c.001 4.311 3.495 7.806 7.806 7.806z" fill="#cbc4cc"/><path d="m128.218 418.307h-13.441c-4.311 0-7.806-3.495-7.806-7.806v-50.103c0-4.311 3.495-7.806 7.806-7.806h13.441c4.311 0 7.806 3.495 7.806 7.806v50.103c0 4.311-3.495 7.806-7.806 7.806z" fill="#cbc4cc"/><g fill="#f9f3f1"><path d="m378.335 112.131h103.086c8.942 0 16.19-7.249 16.19-16.19 0-8.942-7.249-16.19-16.19-16.19h-103.086c-8.942 0-16.19 7.249-16.19 16.19 0 8.941 7.249 16.19 16.19 16.19z"/><path d="m119.277 112.131h-103.087c-8.942 0-16.19-7.249-16.19-16.19 0-8.942 7.249-16.19 16.19-16.19h103.086c8.942 0 16.19 7.249 16.19 16.19.001 8.941-7.248 16.19-16.189 16.19z"/></g></g></g></svg>