<svg height="480pt" viewBox="-31 0 479 480" width="480pt" xmlns="http://www.w3.org/2000/svg"><g fill="#e8eff4"><path d="m256.5 416h-16v-19.710938c0-16.105468-6.273438-31.242187-17.65625-42.632812-14.40625-14.410156-22.34375-33.566406-22.34375-53.945312v-11.710938h16v11.710938c0 16.105468 6.273438 31.242187 17.65625 42.632812 14.40625 14.410156 22.34375 33.566406 22.34375 53.945312zm0 0"/><path d="m234.84375 477.65625-31.03125-31.03125c-12.457031-12.457031-19.3125-29.007812-19.3125-46.625s6.855469-34.167969 19.3125-46.625l14.0625-14.0625c9.433594-9.433594 14.625-21.976562 14.625-35.3125v-16h16v16c0 17.617188-6.855469 34.167969-19.3125 46.625l-14.0625 14.0625c-9.433594 9.433594-14.625 21.976562-14.625 35.3125s5.191406 25.878906 14.625 35.3125l31.03125 31.03125zm0 0"/><path d="m178.84375 477.65625-31.03125-31.03125c-12.457031-12.457031-19.3125-29.007812-19.3125-46.625s6.855469-34.167969 19.3125-46.625l6.0625-6.0625c9.433594-9.433594 14.625-21.976562 14.625-35.3125v-24h16v24c0 17.617188-6.855469 34.167969-19.3125 46.625l-6.0625 6.0625c-9.433594 9.433594-14.625 21.976562-14.625 35.3125s5.191406 25.878906 14.625 35.3125l31.03125 31.03125zm0 0"/><path d="m178.84375 373.65625-11.710938-11.710938c-19.753906-19.753906-30.632812-46.015624-30.632812-73.945312h16c0 23.65625 9.214844 45.894531 25.945312 62.632812l11.710938 11.710938zm0 0"/><path d="m278.15625 429.65625-11.3125-11.3125 12-12c6.222656-6.222656 9.65625-14.511719 9.65625-23.3125v-6.0625c0-8.808594-3.433594-17.089844-9.65625-23.3125-9.246094-9.25-14.34375-21.542969-14.34375-34.625v-31.03125h16v31.03125c0 8.808594 3.433594 17.089844 9.65625 23.3125 9.246094 9.25 14.34375 21.542969 14.34375 34.625v6.0625c0 13.082031-5.097656 25.375-14.34375 34.625zm0 0"/></g><path d="m160.5 160h-25.296875c-16.960937 0-30.703125-13.742188-30.703125-30.703125 0-6.066406 1.792969-11.984375 5.160156-17.03125l61.527344-92.296875c8.320312-12.472656 22.320312-19.96875 37.3125-19.96875s28.992188 7.496094 37.3125 19.96875l61.527344 92.296875c3.359375 5.039063 5.160156 10.964844 5.160156 17.03125 0 16.960937-13.742188 30.703125-30.703125 30.703125h-25.296875" fill="#e8eff4"/><path d="m272.5 296h-128c-13.257812 0-24-10.742188-24-24s10.742188-24 24-24h128c13.257812 0 24 10.742188 24 24s-10.742188 24-24 24zm0 0" fill="#e8eff4"/><path d="m183.53125 89.648438c4-9.03125 8.382812-17.914063 13.136719-26.625 2.359375-4.328126 6.902343-7.023438 11.832031-7.023438s9.472656 2.695312 11.832031 7.023438c4.753907 8.710937 9.136719 17.601562 13.144531 26.640624l11.609376 29.648438c12.804687 37.503906 19.414062 77.007812 19.414062 116.925781v27.761719h-112v-27.761719c0-39.917969 6.609375-79.414062 19.414062-116.925781zm0 0" fill="#a9d8d6"/><path d="m192.5 104c0 8.835938-7.164062 16-16 16s-16-7.164062-16-16 7.164062-16 16-16 16 7.164062 16 16zm0 0" fill="#f1f6f9"/><path d="m256.5 104c0 8.835938-7.164062 16-16 16s-16-7.164062-16-16 7.164062-16 16-16 16 7.164062 16 16zm0 0" fill="#f1f6f9"/><path d="m368.5 456c0 13.253906-10.746094 24-24 24s-24-10.746094-24-24 10.746094-24 24-24 24 10.746094 24 24zm0 0" fill="#609be2"/><path d="m416.5 368c0 22.089844-17.910156 40-40 40s-40-17.910156-40-40 17.910156-40 40-40 40 17.910156 40 40zm0 0" fill="#609be2"/><path d="m96.5 368c0 13.253906-10.746094 24-24 24s-24-10.746094-24-24 10.746094-24 24-24 24 10.746094 24 24zm0 0" fill="#609be2"/><path d="m80.5 280c0 22.089844-17.910156 40-40 40s-40-17.910156-40-40 17.910156-40 40-40 40 17.910156 40 40zm0 0" fill="#609be2"/></svg>