<svg width="64" height="64" viewBox="0 0 64 64" fill="none" xmlns="http://www.w3.org/2000/svg">
<path d="M59.5236 18.498C59.2905 17.8798 58.5811 17.5656 57.973 17.8291C57.3953 18.0723 57.1115 18.7311 57.3345 19.3088C58.4392 22.248 59.0473 25.4406 59.0473 28.7649C59.0473 42.4068 48.8818 53.6669 35.7162 55.3899V42.8527C36.5169 42.7007 37.2872 42.4879 38.0473 42.2244V52.7649C48.8615 50.1399 56.8885 40.3899 56.8885 28.7649C56.8885 19.4608 51.7399 11.3527 44.1385 7.14666C43.5608 6.82234 42.8209 7.05545 42.527 7.65342C42.2534 8.21085 42.4662 8.88991 43.0034 9.18382C49.8851 12.9946 54.5473 20.3325 54.5473 28.7649C54.5473 38.221 48.6791 46.3088 40.3784 49.5825V40.2379C41.8176 39.7818 42.902 38.444 42.902 36.8426C42.902 35.5149 42.2128 34.3696 41.1486 33.7514C41.9899 25.694 45.6588 27.8122 45.6588 25.248V23.7581C45.6588 19.9068 36.75 7.3595 32.5845 7.06558C32.3311 7.04531 32.0777 7.04531 31.8142 7.06558C27.6385 7.36964 18.7297 19.9068 18.7297 23.7581V25.2581C18.7297 27.8223 22.4088 25.694 23.2399 33.7615C22.1655 34.3798 21.4865 35.525 21.4865 36.8527C21.4865 38.4541 22.5608 39.7919 24 40.248V49.5926C15.6993 46.3291 9.83108 38.2413 9.83108 28.775C9.83108 20.3527 14.4932 13.0149 21.375 9.19396C21.9223 8.88991 22.125 8.22099 21.8514 7.66355C21.5574 7.06558 20.8277 6.83247 20.2399 7.1568C12.6385 11.3629 7.48986 19.471 7.48986 28.775C7.48986 40.4 15.5169 50.1399 26.3311 52.775V42.2345C27.1014 42.4879 27.8615 42.7007 28.6622 42.8629V55.4C15.5068 53.6771 5.33108 42.4169 5.33108 28.775C5.33108 25.4507 5.93919 22.2581 7.04392 19.319C7.26689 18.7311 6.98311 18.0825 6.40541 17.8392C5.7973 17.5757 5.08784 17.8798 4.85473 18.5081C3.65878 21.7007 3 25.1568 3 28.775C3 44.4946 15.4257 57.3156 31.0034 57.944V43.1568C31.6926 43.1973 32.5236 43.2075 33.375 43.1568V57.9338C48.9527 57.3156 61.3784 44.4946 61.3784 28.775C61.3784 25.1568 60.7196 21.7007 59.5236 18.498ZM39.2736 34.4507C40.5912 34.4507 41.6757 35.5149 41.6757 36.8527C41.6757 38.1804 40.6014 39.2548 39.2736 39.2548C37.9561 39.2548 36.8716 38.1906 36.8716 36.8527C36.8716 35.525 37.9459 34.4507 39.2736 34.4507ZM25.1047 39.2446C23.7669 39.2446 22.7027 38.1602 22.7027 36.8426C22.7027 35.525 23.7669 34.4406 25.1047 34.4406C26.4324 34.4406 27.5068 35.5149 27.5068 36.8426C27.5068 38.1602 26.4426 39.2446 25.1047 39.2446Z" fill="#00529E"/>
</svg>
