<svg width="64" height="64" viewBox="0 0 64 64" fill="none" xmlns="http://www.w3.org/2000/svg">
<path d="M9.6 29.2C13.13 29.2 16 26.33 16 22.8C16 19.27 13.13 16.4 9.6 16.4C6.07 16.4 3.2 19.27 3.2 22.8C3.2 26.33 6.07 29.2 9.6 29.2ZM54.4 29.2C57.93 29.2 60.8 26.33 60.8 22.8C60.8 19.27 57.93 16.4 54.4 16.4C50.87 16.4 48 19.27 48 22.8C48 26.33 50.87 29.2 54.4 29.2ZM57.6 32.4H51.2C49.44 32.4 47.85 33.11 46.69 34.26C50.72 36.47 53.58 40.46 54.2 45.2H60.8C62.57 45.2 64 43.77 64 42V38.8C64 35.27 61.13 32.4 57.6 32.4ZM32 32.4C38.19 32.4 43.2 27.39 43.2 21.2C43.2 15.01 38.19 9.99998 32 9.99998C25.81 9.99998 20.8 15.01 20.8 21.2C20.8 27.39 25.81 32.4 32 32.4ZM39.68 35.6H38.85C36.77 36.6 34.46 37.2 32 37.2C29.54 37.2 27.24 36.6 25.15 35.6H24.32C17.96 35.6 12.8 40.76 12.8 47.12V50C12.8 52.65 14.95 54.8 17.6 54.8H46.4C49.05 54.8 51.2 52.65 51.2 50V47.12C51.2 40.76 46.04 35.6 39.68 35.6ZM17.31 34.26C16.15 33.11 14.56 32.4 12.8 32.4H6.4C2.87 32.4 0 35.27 0 38.8V42C0 43.77 1.43 45.2 3.2 45.2H9.79C10.42 40.46 13.28 36.47 17.31 34.26Z" fill="#00529E"/>
</svg>
