<svg width="64" height="64" viewBox="0 0 64 64" fill="none" xmlns="http://www.w3.org/2000/svg">
<path d="M32 2C15.431 2 2 15.431 2 32C2 48.569 15.431 62 32 62C48.569 62 62 48.569 62 32C62 15.431 48.569 2 32 2ZM32 54.2581C19.6988 54.2581 9.74194 44.3036 9.74194 32C9.74194 19.6988 19.6964 9.74194 32 9.74194C44.3012 9.74194 54.2581 19.6964 54.2581 32C54.2581 44.3012 44.3036 54.2581 32 54.2581ZM32 16.5161C23.4488 16.5161 16.5161 23.4488 16.5161 32C16.5161 40.5512 23.4488 47.4839 32 47.4839C40.5512 47.4839 47.4839 40.5512 47.4839 32C47.4839 23.4488 40.5512 16.5161 32 16.5161ZM32 39.7419C27.731 39.7419 24.2581 36.269 24.2581 32C24.2581 27.731 27.731 24.2581 32 24.2581C36.269 24.2581 39.7419 27.731 39.7419 32C39.7419 36.269 36.269 39.7419 32 39.7419Z" fill="#00529E"/>
</svg>
