<svg width="64" height="32" viewBox="0 0 64 32" fill="none" xmlns="http://www.w3.org/2000/svg">
<path d="M18.961 21.4582C19.315 21.7842 20.488 22.4002 22.4 22.4002C24.312 22.4002 25.486 21.7842 25.839 21.4582C27.441 19.9812 29.289 19.2002 31.185 19.2002H32.815C34.711 19.2002 36.56 19.9812 38.161 21.4582C38.515 21.7842 39.688 22.4002 41.6 22.4002C43.512 22.4002 44.686 21.7842 45.039 21.4582C46.525 20.0872 48.227 19.3462 49.978 19.2422L38.694 11.1822L40.494 9.8962C40.858 9.6382 41.322 9.5442 41.756 9.6352L51.791 11.7882C54.382 12.3412 56.935 10.6912 57.491 8.1002C58.046 5.5082 56.396 2.9562 53.803 2.4002L43.768 0.247201C40.695 -0.410799 37.466 0.2592 34.912 2.0852L26.91 7.8022C25.872 8.5412 24.974 9.4462 24.238 10.4962L17.375 20.3002C17.922 20.6232 18.457 20.9932 18.961 21.4582ZM62.4 25.6002H60.8C58.196 25.6002 56.22 24.7582 55.191 23.8102C54.301 22.9892 53.225 22.4002 52.014 22.4002H50.384C49.173 22.4002 48.097 22.9892 47.207 23.8102C46.18 24.7582 44.204 25.6002 41.6 25.6002C38.996 25.6002 37.02 24.7582 35.991 23.8102C35.101 22.9892 34.025 22.4002 32.814 22.4002H31.184C29.973 22.4002 28.897 22.9892 28.007 23.8102C26.98 24.7582 25.004 25.6002 22.4 25.6002C19.796 25.6002 17.82 24.7582 16.791 23.8102C15.901 22.9892 14.825 22.4002 13.614 22.4002H11.984C10.773 22.4002 9.697 22.9892 8.807 23.8102C7.78 24.7582 5.804 25.6002 3.2 25.6002H1.6C0.716 25.6002 0 26.3162 0 27.2002V30.4002C0 31.2842 0.716 32.0002 1.6 32.0002H3.2C7.062 32.0002 10.472 30.7812 12.8 28.8162C15.128 30.7822 18.538 32.0002 22.4 32.0002C26.262 32.0002 29.672 30.7812 32 28.8162C34.328 30.7822 37.738 32.0002 41.6 32.0002C45.462 32.0002 48.872 30.7812 51.2 28.8162C53.528 30.7822 56.938 32.0002 60.8 32.0002H62.4C63.284 32.0002 64 31.2842 64 30.4002V27.2002C64 26.3162 63.284 25.6002 62.4 25.6002ZM11.2 16.0002C15.618 16.0002 19.2 12.4182 19.2 8.0002C19.2 3.5822 15.618 0.00020059 11.2 0.00020059C6.782 0.00020059 3.2 3.5822 3.2 8.0002C3.2 12.4182 6.782 16.0002 11.2 16.0002Z" fill="#00529E"/>
</svg>
